<svg xmlns="http://www.w3.org/2000/svg" viewBox="0 0 300 400" role="img" aria-label="Espaco reservado: Antes">
<defs>
  <linearGradient id="g" x1="0" y1="0" x2="1" y2="1">
    <stop offset="0" stop-color="#12699f"/><stop offset=".55" stop-color="#0e5aa7"/><stop offset="1" stop-color="#0a3f77"/>
  </linearGradient>
  <radialGradient id="b" cx=".22" cy=".14" r=".75">
    <stop offset="0" stop-color="#ffffff" stop-opacity=".22"/><stop offset="1" stop-color="#ffffff" stop-opacity="0"/>
  </radialGradient>
</defs>
<rect width="100%" height="100%" fill="url(#g)"/>
<rect width="100%" height="100%" fill="url(#b)"/>
<g opacity=".12" fill="none" stroke="#fff" stroke-width="1.4">
  <circle cx="150" cy="200" r="140"/><circle cx="150" cy="200" r="100"/>
</g>
<g fill="#fff" opacity=".55">
  <path d="M150 120c-22 0-35 17-35 41 0 25 9 42 14 67 4 20 3 41 9 63 3 14 9 25 19 25 13 0 15-15 18-34 3-15 5-30 13-30s10 15 13 30c3 19 5 34 18 34 10 0 16-11 19-25 6-22 5-43 9-63 5-25 14-42 14-67 0-24-13-41-35-41-15 0-23 9-38 9s-23-9-38-9Z"/>
</g>
<g fill="#fff" opacity=".9" font-family="Inter, Arial, sans-serif" font-size="20" font-weight="600" text-anchor="middle">
  <text x="150" y="352">Antes</text>
</g>
</svg>